<?xml version="1.0" standalone="no"?><!DOCTYPE svg PUBLIC "-//W3C//DTD SVG 1.1//EN" "http://www.w3.org/Graphics/SVG/1.1/DTD/svg11.dtd"><svg width="100%" height="100%" viewBox="0 0 237 27" version="1.1" xmlns="http://www.w3.org/2000/svg" xmlns:xlink="http://www.w3.org/1999/xlink" xml:space="preserve" style="fill-rule:evenodd;clip-rule:evenodd;stroke-linejoin:round;stroke-miterlimit:1.41421;"><g><path d="M10.765,13.472l-10.765,0l10.762,13.457l10.743,0.004l-10.74,-13.461Z" style="fill:#323232;"/><path d="M26.877,0.01l-10.761,13.463l10.761,13.457l10.744,0.004l-10.74,-13.461l10.673,-13.463l-10.677,0Z" style="fill:#323232;"/></g><g><path d="M44.255,5.736l3.453,0l0.162,0.284l0.65,0.975l0.122,0.122l0.041,0.122c0.034,0.027 0.047,0.054 0.04,0.081c0.197,0.21 0.332,0.413 0.406,0.609c0.197,0.21 0.332,0.413 0.407,0.61l0.162,0.203l0.163,0.243c0.074,0.122 0.142,0.217 0.203,0.285l0.04,0.122c0.102,0.108 0.17,0.216 0.203,0.325c0.271,0.304 0.461,0.589 0.569,0.853l0.163,0.243c0.033,0.027 0.047,0.054 0.04,0.082c0.203,0.23 0.352,0.433 0.447,0.609l0.162,0.244l0.122,0.243l0.163,0.244l0.162,0.162l0.122,0.204l0.081,0.203c0.176,0.176 0.298,0.352 0.366,0.528l0.122,0.162l0.081,0.163l0.122,0.121c0.129,0.19 0.223,0.353 0.284,0.488l0.122,0.122l0.081,0.122l0.041,0.121l0.081,0.041c0.088,0.196 0.183,0.345 0.285,0.447l0.04,0.122c0.034,0.027 0.048,0.054 0.041,0.081c0.25,0.278 0.426,0.535 0.528,0.772l0.04,-0.285l0,-0.284l0,-0.325l0,-0.162l0,-0.731l0,-0.447l0,-0.163l0,-0.162l0,-0.163l0,-0.162l0,-0.691l0,-0.122l0,-0.487l0,-0.244l0,-0.69l0,-0.122l0,-0.488l0,-0.528l0,-0.162l0,-0.691l0,-0.121l0,-0.488l0,-0.447l0,-0.203l0,-0.528l0,-0.162l0,-0.691l0,-0.122l0,-0.487l3.209,0l0,15.516l-0.122,0l-0.487,0l-0.406,0l-0.284,0l-0.244,0l-0.203,0l-0.163,0l-0.162,0l-0.163,0l-0.122,0l-0.121,0l-0.122,0l-0.082,0l0.082,0l-0.082,0l-0.324,0l-0.122,0l-0.528,0l-0.041,-0.081c-0.095,-0.122 -0.162,-0.23 -0.203,-0.325c-0.034,-0.027 -0.047,-0.054 -0.041,-0.081c-0.25,-0.278 -0.426,-0.535 -0.528,-0.772c-0.034,-0.027 -0.047,-0.054 -0.04,-0.081l-0.163,-0.244c-0.142,-0.162 -0.25,-0.325 -0.325,-0.487l-0.203,-0.244l-0.162,-0.284l-0.163,-0.285c-0.183,-0.203 -0.318,-0.392 -0.406,-0.568l-0.081,-0.081c-0.109,-0.237 -0.23,-0.427 -0.366,-0.569l-0.04,-0.081l-0.082,-0.122l-0.365,-0.569c-0.095,-0.122 -0.163,-0.23 -0.203,-0.325c-0.034,-0.027 -0.048,-0.054 -0.041,-0.081l-0.081,-0.041l-0.163,-0.284l-0.04,-0.081c-0.095,-0.122 -0.163,-0.23 -0.203,-0.325c-0.061,-0.068 -0.102,-0.136 -0.122,-0.203l-0.163,-0.163l-0.162,-0.244l-0.081,-0.203l-0.082,-0.04l-0.162,-0.285l-0.366,-0.528l-0.081,-0.162l-0.081,-0.163l-0.122,-0.121l-0.081,-0.122l-0.041,-0.122c-0.135,-0.149 -0.244,-0.284 -0.325,-0.406l-0.081,-0.163c-0.115,-0.156 -0.196,-0.291 -0.244,-0.406c-0.047,-0.027 -0.074,-0.054 -0.081,-0.081l-0.081,-0.081l-0.041,-0.082l-0.162,-0.284l-0.366,-0.528l0,10.398l-0.528,0l-0.163,0l-0.731,0l-0.162,0l-0.163,0l-0.162,0l-0.691,0l-0.121,0l-0.488,0l0,-0.121l0,-0.163l0,-0.122l0,-0.162l0,-0.731l0,-0.325l0,-0.325l0,-0.122l0,-0.813l0,-0.162l0,-0.203l0,-0.163l0,-0.203l0,-0.528l0,-0.162l0,-0.691l0,-0.122l0,-0.487l0,-0.163l0,-0.203l0,-0.528l0,-0.162l0,-0.691l0,-0.122l0,-0.487l0,-0.284l0,-0.325l0,-0.325l0,-0.325l0,-0.122l0,-0.122l0,-1.259l0,-0.284l0,-0.244l0,-0.284l0,-0.244l0,-0.203l0,-0.244l0,-0.162l0,-0.732l0,-0.446l0,-0.163l0,-0.162l0,-0.163l0,-0.162l0,-0.691l0,-0.122l0,-0.487l0.203,0Z" style="fill:#323232;fill-rule:nonzero;"/><path d="M61.656,5.777l10.074,0l0,3.087l-0.812,0l-0.244,0l-0.691,0l-0.122,0l-0.487,0l-0.528,0l-0.162,0l-0.691,0l-0.122,0l-0.487,0l-0.447,0l-0.203,0l-0.528,0l-0.163,0l-0.69,0l-0.122,0l-0.488,0l0,3.127l6.337,0l0,2.884l-0.569,0l-0.121,0l-0.204,0l-0.121,0l-0.163,0l-0.122,0l-0.812,0l-0.528,0l-0.285,0l-0.568,0l-0.122,0l-0.731,0l-0.528,0l-0.163,0l-0.69,0l-0.122,0l-0.488,0l0,3.25c0.055,0.115 0.149,0.155 0.285,0.122l7.311,0l0,3.087l-0.122,0l-0.162,0l-0.691,0l-0.121,0l-0.488,0l-0.812,0l-0.325,0l-0.325,0l-0.325,0l-0.325,0l-0.812,0l-0.122,0l-0.122,0l-1.259,0l-0.285,0l-0.243,0l-0.285,0l-0.244,0l-0.203,0l-0.243,0l-0.163,0l-0.731,0l-0.447,0l-0.162,0l-0.163,0l-0.162,0l-0.163,0l-0.69,0l-0.122,0l-0.487,0l0,-0.163l0,-0.731l0,-0.325l0,-0.325l0,-0.122l0,-0.162l0,-0.731l0,-0.122l0,-0.813l0,-0.325l0,-0.162l0,-0.731l0,-0.122l0,-0.122l0,-1.259l0,-0.284l0,-0.122l0,-0.163l0,-0.731l0,-0.569l0,-0.121l0,-0.204l0,-0.121l0,-0.163l0,-0.122l0,-0.812l0,-0.691l0,-0.121l0,-0.488l0,-0.528l0,-0.162l0,-0.691l0,-0.122l0,-0.487l0,-0.447l0,-0.203l0,-0.528l0,-0.163l0,-0.69l0,-0.122l0,-0.487l0.121,0Z" style="fill:#323232;fill-rule:nonzero;"/><path d="M74.386,5.817l2.194,0c0.365,-0.02 0.677,-0.007 0.934,0.041l0,0.122l0.163,0.69l0.04,0.244c0.027,0.04 0.041,0.081 0.041,0.122l0.04,0.122l0.041,0.081l0.041,0.203l0.122,0.65l0.04,0.081l0,0.122c0.102,0.244 0.156,0.474 0.163,0.69l0.081,0.244l0,0.122c0.101,0.244 0.156,0.474 0.162,0.691l0.082,0.203l0.04,0.203l0.041,0.243c0.122,0.366 0.189,0.677 0.203,0.935c0.088,0.21 0.142,0.399 0.162,0.568c0.041,0.17 0.068,0.319 0.082,0.447c0.101,0.251 0.155,0.481 0.162,0.691c0.061,0.155 0.102,0.291 0.122,0.406c0.041,0.169 0.068,0.318 0.081,0.447c0.088,0.257 0.142,0.474 0.163,0.65l0.04,0.203l0.122,0.406l0.041,0.284l0.162,0.569l0.041,-0.203l0.04,-0.122l0,-0.122l0.041,-0.122c0.047,-0.291 0.102,-0.535 0.163,-0.731l0,-0.162l0.04,-0.122l0.122,-0.528l0,-0.122l0.041,-0.163l0.04,-0.122l0.041,-0.121l0,-0.122l0.081,-0.285l0,-0.121c0.041,-0.156 0.068,-0.292 0.081,-0.407c0.048,-0.135 0.075,-0.257 0.082,-0.365c0.088,-0.318 0.142,-0.589 0.162,-0.813l0.041,-0.203l0.04,-0.122l0.244,-1.177l0.041,-0.204l0.04,-0.121c0.034,-0.21 0.075,-0.386 0.122,-0.528l0,-0.122l0.081,-0.325l0.163,-0.813l0.04,-0.081l0.082,-0.487l0.04,-0.122l0,-0.122l0.122,-0.406c0.027,-0.258 0.068,-0.474 0.122,-0.65l0.041,-0.244l3.737,0l0.04,0.284l0.081,0.285l0,0.162c0.102,0.373 0.17,0.684 0.204,0.935l0.121,0.568l0.122,0.488l0.041,0.203l0.041,0.284l0.081,0.487l0.081,0.204l0.041,0.243l0.04,0.203l0,0.122c0.027,0.041 0.041,0.081 0.041,0.122c0.054,0.163 0.081,0.311 0.081,0.447c0.027,0.041 0.041,0.081 0.041,0.122l0.04,0.081l0,0.122l0.082,0.325l0.081,0.487l0.081,0.244l0.041,0.244l0,0.122l0.081,0.324l0.041,0.244c0.081,0.217 0.121,0.42 0.121,0.609l0.041,0.163c0.074,0.203 0.115,0.379 0.122,0.528l0.04,0.122l0.041,0.325l0.081,0.325l0.041,0.243c0.108,0.312 0.162,0.583 0.162,0.813l0.122,-0.244l0,-0.162l0.082,-0.325l0.04,-0.122l0.041,-0.122c0.027,-0.223 0.067,-0.413 0.122,-0.569l0.081,-0.325l0.04,-0.243l0.041,-0.082l0.041,-0.284l0.162,-0.569l0.041,-0.284l0.081,-0.284l0.041,-0.285l0.081,-0.284l0.041,-0.162l0.081,-0.325l0.243,-1.016l0.041,-0.244l0.081,-0.324l0.082,-0.285l0.04,-0.244l0.081,-0.243l0.041,-0.163l0,-0.162l0.041,-0.163l0.04,-0.122l0.041,-0.081l0.081,-0.487l0.081,-0.325l0.082,-0.284l0,-0.122l0.04,-0.122l0.041,-0.122l0,-0.122l0.081,-0.284l0.041,-0.122l0,-0.122c0.095,-0.25 0.149,-0.467 0.162,-0.65l3.29,0l0,0.122l-0.04,0.244l-0.122,0.325l-0.041,0.284l-0.122,0.569l-0.04,0.122c-0.061,0.311 -0.129,0.568 -0.203,0.771c-0.007,0.156 -0.034,0.291 -0.082,0.406l-0.243,1.057l-0.041,0.121l0,0.122l-0.041,0.244l-0.081,0.325c-0.067,0.189 -0.108,0.352 -0.122,0.487l-0.04,0.082l-0.041,0.284c-0.068,0.223 -0.108,0.413 -0.122,0.569c-0.061,0.155 -0.101,0.291 -0.122,0.406l-0.04,0.162l-0.041,0.122c-0.007,0.156 -0.034,0.291 -0.081,0.406l-0.041,0.244l-0.04,0.163l-0.041,0.081l-0.041,0.284l-0.162,0.569l-0.122,0.69l-0.081,0.325l-0.081,0.285l-0.041,0.243l-0.041,0.163l-0.04,0.122l-0.041,0.081l-0.081,0.487l-0.122,0.528l-0.041,0.122c-0.054,0.318 -0.121,0.576 -0.203,0.772l0,0.162c-0.067,0.204 -0.108,0.38 -0.121,0.528l-0.041,0.122l-0.041,0.122l-0.081,0.325l-0.041,0.284l-0.162,0.569l-0.041,0.284l-0.162,0.732l-0.244,0l-0.122,0l-0.812,0l-0.203,0l-0.122,0l-0.203,0l-0.163,0l-0.121,0l-0.204,0l-0.203,0l-0.122,0l-0.487,0l-0.122,0c-0.365,0.02 -0.677,0.006 -0.934,-0.041l0,-0.122l-0.041,-0.081l0,-0.122l-0.04,-0.122l-0.082,-0.487l-0.203,-0.934l-0.04,-0.285c-0.109,-0.372 -0.176,-0.684 -0.203,-0.934l-0.082,-0.325l-0.081,-0.325l-0.04,-0.284l-0.041,-0.285l-0.081,-0.243l0,-0.163l-0.122,-0.487l0,-0.122c-0.115,-0.372 -0.183,-0.684 -0.203,-0.934l-0.081,-0.244l0,-0.203c-0.028,-0.041 -0.041,-0.081 -0.041,-0.122l-0.041,-0.081l-0.162,-0.894l-0.041,-0.162l-0.122,-0.65l-0.081,-0.325l-0.041,-0.163l0,-0.162l-0.04,-0.163l-0.081,-0.284l0,-0.122l-0.082,-0.325l-0.081,-0.284l-0.04,0.122l-0.041,0.243l-0.041,0.163l-0.04,0.244l-0.163,0.771l-0.081,0.285l0,0.122l-0.163,0.65l-0.04,0.324l-0.081,0.325l-0.082,0.325l-0.04,0.325l-0.081,0.325l-0.082,0.488c-0.094,0.304 -0.149,0.562 -0.162,0.771l-0.081,0.244l-0.041,0.203l0,0.122c-0.047,0.156 -0.075,0.291 -0.081,0.406c-0.048,0.136 -0.075,0.258 -0.082,0.366l-0.081,0.203l-0.081,0.569l-0.041,0.203l-0.04,0.162l-0.163,0.731l-0.122,0.569l-0.04,0.244l-0.081,0.325l-0.122,0.65l-0.244,0l-0.122,0l-0.812,0l-0.203,0l-0.122,0l-0.203,0l-0.163,0l-0.122,0l-0.203,0l-0.203,0l-0.122,0l-0.487,0l-0.122,0c-0.366,0.02 -0.677,0.006 -0.934,-0.041l-0.041,-0.325c-0.122,-0.366 -0.189,-0.677 -0.203,-0.934c-0.041,-0.102 -0.068,-0.197 -0.081,-0.285l-0.081,-0.324l-0.082,-0.325l-0.081,-0.285l-0.04,-0.325l-0.041,-0.162c-0.081,-0.224 -0.122,-0.413 -0.122,-0.569l-0.041,-0.162l-0.203,-0.691l0,-0.162c-0.101,-0.271 -0.155,-0.515 -0.162,-0.731c-0.102,-0.244 -0.156,-0.461 -0.163,-0.65l-0.081,-0.244l-0.04,-0.325c-0.028,-0.041 -0.041,-0.081 -0.041,-0.122l-0.203,-0.812l-0.081,-0.325l0,-0.122c-0.082,-0.196 -0.122,-0.372 -0.122,-0.528c-0.041,-0.102 -0.068,-0.196 -0.082,-0.284l-0.081,-0.285l-0.04,-0.284c-0.075,-0.203 -0.115,-0.379 -0.122,-0.528c-0.122,-0.352 -0.19,-0.65 -0.203,-0.894l-0.082,-0.203l-0.04,-0.203l-0.041,-0.244l-0.04,-0.203c-0.028,-0.074 -0.041,-0.142 -0.041,-0.203l-0.081,-0.162l-0.122,-0.65c-0.068,-0.203 -0.108,-0.379 -0.122,-0.528c-0.061,-0.156 -0.088,-0.291 -0.081,-0.407c-0.122,-0.318 -0.19,-0.602 -0.203,-0.853c-0.068,-0.162 -0.109,-0.311 -0.122,-0.446l-0.041,-0.122l0,-0.122c-0.068,-0.163 -0.108,-0.311 -0.122,-0.447l0.203,0Z" style="fill:#323232;fill-rule:nonzero;"/><path d="M101.228,5.817l2.68,0l0,5.281l0.244,-0.203l0.041,-0.122l0.284,-0.244c0.027,-0.047 0.054,-0.075 0.081,-0.081l0.041,-0.082l0.528,-0.609l0.203,-0.162l0.122,-0.203l0.081,-0.082l0.081,-0.081l0.082,-0.081l0.081,-0.081l0.081,-0.122l0.081,-0.041l0.528,-0.609l0.163,-0.122l0.122,-0.162l0.122,-0.163l0.162,-0.122l0.122,-0.162c0.027,-0.048 0.054,-0.075 0.081,-0.081l0.122,-0.122l0.041,-0.082c0.094,-0.121 0.189,-0.216 0.284,-0.284c0.183,-0.264 0.372,-0.467 0.569,-0.609c0.162,-0.237 0.311,-0.427 0.446,-0.569l4.347,0l-0.082,0.122l-0.081,0.122l-0.122,0.122l-0.081,0.081c-0.135,0.162 -0.257,0.284 -0.365,0.366c-0.082,0.121 -0.163,0.216 -0.244,0.284l-0.041,0.081l-0.081,0.041c-0.196,0.264 -0.372,0.467 -0.528,0.609l-0.203,0.203l-0.528,0.609l-0.163,0.163l-0.122,0.162l-0.203,0.163l-0.081,0.162l-0.122,0.122l-0.447,0.488l-0.162,0.162l-0.122,0.163l-0.162,0.121l-0.082,0.122c-0.101,0.142 -0.209,0.251 -0.325,0.325c-0.027,0.048 -0.054,0.075 -0.081,0.081l-0.04,0.122l-0.122,0.122l-0.082,0.081l-0.081,0.082l-0.081,0.081l-0.081,0.122l-0.65,0.65c0.04,0.115 0.095,0.209 0.162,0.284l0.122,0.284l0.163,0.244c0.061,0.068 0.101,0.135 0.122,0.203c0.081,0.068 0.148,0.149 0.203,0.244l0.04,0.122c0.176,0.223 0.312,0.426 0.406,0.609l0.163,0.244l0.041,0.122l0.081,0.04l0.365,0.65l0.082,0.081l0.162,0.285c0.115,0.155 0.196,0.291 0.244,0.406l0.162,0.203l0.731,1.178c0.156,0.21 0.264,0.399 0.325,0.569c0.048,0.027 0.075,0.054 0.082,0.081l0.365,0.528l0.284,0.487l0.122,0.163l0.082,0.203c0.04,0.034 0.067,0.074 0.081,0.122l0.081,0.122c0.169,0.209 0.291,0.399 0.366,0.568l0.162,0.285l0.081,0.04l0.041,0.122c0.034,0.027 0.047,0.054 0.041,0.081c0.237,0.264 0.399,0.535 0.487,0.813l-0.569,0l-0.528,0l-0.162,0l-0.731,0l-0.163,0l-0.162,0l-0.163,0l-0.69,0l-0.122,0l-0.488,0l-0.121,-0.244c-0.041,-0.034 -0.068,-0.075 -0.082,-0.122c-0.047,-0.027 -0.074,-0.054 -0.081,-0.081l-0.041,-0.122c-0.04,-0.034 -0.067,-0.075 -0.081,-0.122c-0.108,-0.101 -0.176,-0.21 -0.203,-0.325c-0.047,-0.027 -0.074,-0.054 -0.081,-0.081l-0.041,-0.081l-0.325,-0.447l-0.04,-0.122l-0.447,-0.691c-0.054,-0.088 -0.095,-0.169 -0.122,-0.243c-0.047,-0.027 -0.074,-0.054 -0.081,-0.081l-0.366,-0.529l-0.122,-0.243l-0.121,-0.163l-0.041,-0.122c-0.176,-0.203 -0.298,-0.392 -0.366,-0.568l-0.122,-0.122l-0.284,-0.528c-0.04,-0.034 -0.068,-0.075 -0.081,-0.122l-0.203,-0.244l-0.081,-0.122l-0.041,-0.162l-0.081,-0.041l-0.041,-0.122l-0.162,-0.284c-0.176,-0.189 -0.298,-0.379 -0.366,-0.569l-0.162,-0.121l-0.082,0.162l-0.122,0.081l-0.081,0.122l-0.081,0.081l-0.081,0.122l-0.122,0.082l-0.041,0.081c-0.149,0.142 -0.257,0.264 -0.325,0.365l-0.325,0.325l0,5.403l-0.528,0l-0.162,0l-0.731,0l-0.163,0l-0.162,0l-0.163,0l-0.69,0l-0.122,0l-0.488,0l0,-0.122l0,-0.163l0,-0.122l0,-0.162l0,-0.731l0,-0.325l0,-0.325l0,-0.122l0,-0.812l0,-0.163l0,-0.203l0,-0.162l0,-0.203l0,-0.529l0,-0.162l0,-0.691l0,-0.121l0,-0.488l0,-0.162l0,-0.203l0,-0.528l0,-0.163l0,-0.69l0,-0.122l0,-0.488l0,-0.284l0,-0.325l0,-0.325l0,-0.325l0,-0.122l0,-0.122l0,-1.259l0,-0.284l0,-0.244l0,-0.284l0,-0.244l0,-0.203l0,-0.244l0,-0.162l0,-0.731l0,-0.447l0,-0.163l0,-0.162l0,-0.163l0,-0.162l0,-0.691l0,-0.121l0,-0.488l0.529,0Z" style="fill:#323232;fill-rule:nonzero;"/><path d="M115.217,5.736l3.452,0l0.163,0.284l0.65,0.975l0.122,0.122l0.04,0.122c0.034,0.027 0.048,0.054 0.041,0.081c0.196,0.21 0.332,0.413 0.406,0.609c0.196,0.21 0.332,0.413 0.406,0.61l0.163,0.203l0.162,0.243c0.075,0.122 0.142,0.217 0.203,0.285l0.041,0.122c0.101,0.108 0.169,0.216 0.203,0.325c0.271,0.304 0.46,0.589 0.569,0.853l0.162,0.243c0.034,0.027 0.048,0.054 0.041,0.082c0.203,0.23 0.352,0.433 0.447,0.609l0.162,0.244l0.122,0.243l0.162,0.244l0.163,0.162l0.122,0.204l0.081,0.203c0.176,0.176 0.298,0.352 0.366,0.528l0.121,0.162l0.082,0.163l0.121,0.121c0.129,0.19 0.224,0.353 0.285,0.488l0.122,0.122l0.081,0.122l0.041,0.121l0.081,0.041c0.088,0.196 0.183,0.345 0.284,0.447l0.041,0.122c0.034,0.027 0.047,0.054 0.04,0.081c0.251,0.278 0.427,0.535 0.528,0.772l0.041,-0.285l0,-0.284l0,-0.325l0,-0.162l0,-0.731l0,-0.447l0,-0.163l0,-0.162l0,-0.163l0,-0.162l0,-0.691l0,-0.122l0,-0.487l0,-0.244l0,-0.69l0,-0.122l0,-0.488l0,-0.528l0,-0.162l0,-0.691l0,-0.121l0,-0.488l0,-0.447l0,-0.203l0,-0.528l0,-0.162l0,-0.691l0,-0.122l0,-0.487l3.209,0l0,15.516l-0.122,0l-0.487,0l-0.407,0l-0.284,0l-0.244,0l-0.203,0l-0.162,0l-0.163,0l-0.162,0l-0.122,0l-0.122,0l-0.122,0l-0.081,0l0.081,0l-0.081,0l-0.325,0l-0.122,0l-0.528,0l-0.04,-0.081c-0.095,-0.122 -0.163,-0.23 -0.204,-0.325c-0.033,-0.027 -0.047,-0.054 -0.04,-0.081c-0.251,-0.278 -0.427,-0.535 -0.528,-0.772c-0.034,-0.027 -0.048,-0.054 -0.041,-0.081l-0.162,-0.244c-0.142,-0.162 -0.251,-0.325 -0.325,-0.487l-0.203,-0.244l-0.163,-0.284l-0.162,-0.285c-0.183,-0.203 -0.318,-0.392 -0.406,-0.568l-0.082,-0.081c-0.108,-0.237 -0.23,-0.427 -0.365,-0.569l-0.041,-0.081l-0.081,-0.122l-0.366,-0.569c-0.094,-0.122 -0.162,-0.23 -0.203,-0.325c-0.034,-0.027 -0.047,-0.054 -0.04,-0.081l-0.082,-0.041l-0.162,-0.284l-0.041,-0.081c-0.095,-0.122 -0.162,-0.23 -0.203,-0.325c-0.061,-0.068 -0.101,-0.136 -0.122,-0.203l-0.162,-0.163l-0.163,-0.244l-0.081,-0.203l-0.081,-0.04l-0.163,-0.285l-0.365,-0.528l-0.081,-0.162l-0.082,-0.163l-0.122,-0.121l-0.081,-0.122l-0.04,-0.122c-0.136,-0.149 -0.244,-0.284 -0.325,-0.406l-0.082,-0.163c-0.115,-0.156 -0.196,-0.291 -0.243,-0.406c-0.048,-0.027 -0.075,-0.054 -0.082,-0.081l-0.081,-0.081l-0.04,-0.082l-0.163,-0.284l-0.365,-0.528l0,10.398l-0.528,0l-0.163,0l-0.731,0l-0.163,0l-0.162,0l-0.163,0l-0.69,0l-0.122,0l-0.487,0l0,-0.121l0,-0.163l0,-0.122l0,-0.162l0,-0.731l0,-0.325l0,-0.325l0,-0.122l0,-0.813l0,-0.162l0,-0.203l0,-0.163l0,-0.203l0,-0.528l0,-0.162l0,-0.691l0,-0.122l0,-0.487l0,-0.163l0,-0.203l0,-0.528l0,-0.162l0,-0.691l0,-0.122l0,-0.487l0,-0.284l0,-0.325l0,-0.325l0,-0.325l0,-0.122l0,-0.122l0,-1.259l0,-0.284l0,-0.244l0,-0.284l0,-0.244l0,-0.203l0,-0.244l0,-0.162l0,-0.732l0,-0.446l0,-0.163l0,-0.162l0,-0.163l0,-0.162l0,-0.691l0,-0.122l0,-0.487l0.203,0Z" style="fill:#323232;fill-rule:nonzero;"/><path d="M146.185,12.438c0.291,4.197 -1.185,7.068 -4.428,8.611c-3.134,1.138 -5.801,0.691 -8.002,-1.34c-2.342,-2.64 -2.992,-5.673 -1.949,-9.099c1.137,-3.256 3.303,-5.003 6.499,-5.24c4.596,0.034 7.223,2.39 7.88,7.068ZM134.811,14.144c0.102,1.95 0.901,3.331 2.397,4.143l0.122,0c0.128,0.075 0.25,0.115 0.365,0.122l0.082,0.041l0.487,0.122c2.857,-0.028 4.346,-1.49 4.468,-4.387c0.251,-3.724 -1.198,-5.633 -4.346,-5.728c-2.6,0.495 -3.791,2.39 -3.575,5.687Z" style="fill:#323232;fill-rule:nonzero;"/><path d="M147.745,5.817l2.193,0c0.366,-0.02 0.677,-0.007 0.934,0.041l0,0.122l0.163,0.69l0.04,0.244c0.027,0.04 0.041,0.081 0.041,0.122l0.041,0.122l0.04,0.081l0.041,0.203l0.122,0.65l0.04,0.081l0,0.122c0.102,0.244 0.156,0.474 0.163,0.69l0.081,0.244l0,0.122c0.102,0.244 0.156,0.474 0.162,0.691l0.082,0.203l0.04,0.203l0.041,0.243c0.122,0.366 0.189,0.677 0.203,0.935c0.088,0.21 0.142,0.399 0.162,0.568c0.041,0.17 0.068,0.319 0.082,0.447c0.101,0.251 0.155,0.481 0.162,0.691c0.061,0.155 0.102,0.291 0.122,0.406c0.041,0.169 0.068,0.318 0.081,0.447c0.088,0.257 0.142,0.474 0.163,0.65l0.04,0.203l0.122,0.406l0.041,0.284l0.162,0.569l0.041,-0.203l0.041,-0.122l0,-0.122l0.04,-0.122c0.048,-0.291 0.102,-0.535 0.163,-0.731l0,-0.162l0.04,-0.122l0.122,-0.528l0,-0.122l0.041,-0.163l0.04,-0.122l0.041,-0.121l0,-0.122l0.081,-0.285l0,-0.121c0.041,-0.156 0.068,-0.292 0.081,-0.407c0.048,-0.135 0.075,-0.257 0.082,-0.365c0.088,-0.318 0.142,-0.589 0.162,-0.813l0.041,-0.203l0.04,-0.122l0.244,-1.177l0.041,-0.204l0.04,-0.121c0.034,-0.21 0.075,-0.386 0.122,-0.528l0,-0.122l0.081,-0.325l0.163,-0.813l0.041,-0.081l0.081,-0.487l0.04,-0.122l0,-0.122l0.122,-0.406c0.027,-0.258 0.068,-0.474 0.122,-0.65l0.041,-0.244l3.737,0l0.04,0.284l0.082,0.285l0,0.162c0.101,0.373 0.169,0.684 0.203,0.935l0.122,0.568l0.121,0.488l0.041,0.203l0.041,0.284l0.081,0.487l0.081,0.204l0.041,0.243l0.04,0.203l0,0.122c0.027,0.041 0.041,0.081 0.041,0.122c0.054,0.163 0.081,0.311 0.081,0.447c0.027,0.041 0.041,0.081 0.041,0.122l0.04,0.081l0,0.122l0.082,0.325l0.081,0.487l0.081,0.244l0.041,0.244l0,0.122l0.081,0.324l0.041,0.244c0.081,0.217 0.121,0.42 0.121,0.609l0.041,0.163c0.075,0.203 0.115,0.379 0.122,0.528l0.041,0.122l0.04,0.325l0.081,0.325l0.041,0.243c0.108,0.312 0.163,0.583 0.163,0.813l0.121,-0.244l0,-0.162l0.082,-0.325l0.04,-0.122l0.041,-0.122c0.027,-0.223 0.068,-0.413 0.122,-0.569l0.081,-0.325l0.041,-0.243l0.04,-0.082l0.041,-0.284l0.162,-0.569l0.041,-0.284l0.081,-0.284l0.041,-0.285l0.081,-0.284l0.041,-0.162l0.081,-0.325l0.244,-1.016l0.04,-0.244l0.081,-0.324l0.082,-0.285l0.04,-0.244l0.082,-0.243l0.04,-0.163l0,-0.162l0.041,-0.163l0.04,-0.122l0.041,-0.081l0.081,-0.487l0.081,-0.325l0.082,-0.284l0,-0.122l0.04,-0.122l0.041,-0.122l0,-0.122l0.081,-0.284l0.041,-0.122l0,-0.122c0.095,-0.25 0.149,-0.467 0.162,-0.65l3.29,0l0,0.122l-0.04,0.244l-0.122,0.325l-0.041,0.284l-0.121,0.569l-0.041,0.122c-0.061,0.311 -0.129,0.568 -0.203,0.771c-0.007,0.156 -0.034,0.291 -0.081,0.406l-0.244,1.057l-0.041,0.121l0,0.122l-0.04,0.244l-0.082,0.325c-0.067,0.189 -0.108,0.352 -0.121,0.487l-0.041,0.082l-0.041,0.284c-0.067,0.223 -0.108,0.413 -0.122,0.569c-0.061,0.155 -0.101,0.291 -0.121,0.406l-0.041,0.162l-0.041,0.122c-0.006,0.156 -0.034,0.291 -0.081,0.406l-0.041,0.244l-0.04,0.163l-0.041,0.081l-0.04,0.284l-0.163,0.569l-0.122,0.69l-0.081,0.325l-0.081,0.285l-0.041,0.243l-0.04,0.163l-0.041,0.122l-0.041,0.081l-0.081,0.487l-0.122,0.528l-0.04,0.122c-0.055,0.318 -0.122,0.576 -0.204,0.772l0,0.162c-0.067,0.204 -0.108,0.38 -0.121,0.528l-0.041,0.122l-0.041,0.122l-0.081,0.325l-0.04,0.284l-0.163,0.569l-0.041,0.284l-0.162,0.732l-0.244,0l-0.122,0l-0.812,0l-0.203,0l-0.122,0l-0.203,0l-0.163,0l-0.121,0l-0.203,0l-0.204,0l-0.121,0l-0.488,0l-0.122,0c-0.365,0.02 -0.677,0.006 -0.934,-0.041l0,-0.122l-0.041,-0.081l0,-0.122l-0.04,-0.122l-0.081,-0.487l-0.204,-0.934l-0.04,-0.285c-0.108,-0.372 -0.176,-0.684 -0.203,-0.934l-0.081,-0.325l-0.082,-0.325l-0.04,-0.284l-0.041,-0.285l-0.081,-0.243l0,-0.163l-0.122,-0.487l0,-0.122c-0.115,-0.372 -0.183,-0.684 -0.203,-0.934l-0.081,-0.244l0,-0.203c-0.027,-0.041 -0.041,-0.081 -0.041,-0.122l-0.041,-0.081l-0.162,-0.894l-0.041,-0.162l-0.122,-0.65l-0.081,-0.325l-0.04,-0.163l0,-0.162l-0.041,-0.163l-0.081,-0.284l0,-0.122l-0.082,-0.325l-0.081,-0.284l-0.04,0.122l-0.041,0.243l-0.041,0.163l-0.04,0.244l-0.163,0.771l-0.081,0.285l0,0.122l-0.162,0.65l-0.041,0.324l-0.081,0.325l-0.082,0.325l-0.04,0.325l-0.081,0.325l-0.082,0.488c-0.094,0.304 -0.149,0.562 -0.162,0.771l-0.081,0.244l-0.041,0.203l0,0.122c-0.047,0.156 -0.074,0.291 -0.081,0.406c-0.048,0.136 -0.075,0.258 -0.081,0.366l-0.082,0.203l-0.081,0.569l-0.041,0.203l-0.04,0.162l-0.163,0.731l-0.121,0.569l-0.041,0.244l-0.081,0.325l-0.122,0.65l-0.244,0l-0.122,0l-0.812,0l-0.203,0l-0.122,0l-0.203,0l-0.163,0l-0.122,0l-0.203,0l-0.203,0l-0.122,0l-0.487,0l-0.122,0c-0.365,0.02 -0.677,0.006 -0.934,-0.041l-0.041,-0.325c-0.122,-0.366 -0.189,-0.677 -0.203,-0.934c-0.04,-0.102 -0.068,-0.197 -0.081,-0.285l-0.081,-0.324l-0.082,-0.325l-0.081,-0.285l-0.04,-0.325l-0.041,-0.162c-0.081,-0.224 -0.122,-0.413 -0.122,-0.569l-0.04,-0.162l-0.204,-0.691l0,-0.162c-0.101,-0.271 -0.155,-0.515 -0.162,-0.731c-0.102,-0.244 -0.156,-0.461 -0.163,-0.65l-0.081,-0.244l-0.04,-0.325c-0.027,-0.041 -0.041,-0.081 -0.041,-0.122l-0.203,-0.812l-0.081,-0.325l0,-0.122c-0.082,-0.196 -0.122,-0.372 -0.122,-0.528c-0.041,-0.102 -0.068,-0.196 -0.081,-0.284l-0.082,-0.285l-0.04,-0.284c-0.075,-0.203 -0.115,-0.379 -0.122,-0.528c-0.122,-0.352 -0.19,-0.65 -0.203,-0.894l-0.081,-0.203l-0.041,-0.203l-0.041,-0.244l-0.04,-0.203c-0.027,-0.074 -0.041,-0.142 -0.041,-0.203l-0.081,-0.162l-0.122,-0.65c-0.068,-0.203 -0.108,-0.379 -0.122,-0.528c-0.061,-0.156 -0.088,-0.291 -0.081,-0.407c-0.122,-0.318 -0.19,-0.602 -0.203,-0.853c-0.068,-0.162 -0.109,-0.311 -0.122,-0.446l-0.041,-0.122l0,-0.122c-0.067,-0.163 -0.108,-0.311 -0.122,-0.447l0.204,0Z" style="fill:#323232;fill-rule:nonzero;"/><path d="M169.654,5.777l2.681,0l0,12.429l6.824,0l0,3.087l-0.284,0l-0.244,0l-0.284,0l-0.812,0l-0.325,0l-0.325,0l-0.325,0l-0.325,0l-0.813,0l-0.121,0l-0.122,0l-1.26,0l-0.284,0l-0.244,0l-0.284,0l-0.244,0l-0.203,0l-0.243,0l-0.163,0l-0.731,0l-0.447,0l-0.162,0l-0.163,0l-0.162,0l-0.163,0l-0.69,0l-0.122,0l-0.488,0l0,-0.122l0,-0.162l0,-0.122l0,-0.163l0,-0.731l0,-0.325l0,-0.325l0,-0.122l0,-0.812l0,-0.162l0,-0.204l0,-0.162l0,-0.203l0,-0.528l0,-0.163l0,-0.69l0,-0.122l0,-0.487l0,-0.163l0,-0.203l0,-0.528l0,-0.163l0,-0.69l0,-0.122l0,-0.487l0,-0.285l0,-0.325l0,-0.325l0,-0.325l0,-0.121l0,-0.122l0,-1.259l0,-0.285l0,-0.243l0,-0.285l0,-0.244l0,-0.203l0,-0.243l0,-0.163l0,-0.731l0,-0.447l0,-0.162l0,-0.163l0,-0.162l0,-0.163l0,-0.69l0,-0.122l0,-0.487l0.528,0Z" style="fill:#323232;fill-rule:nonzero;"/><path d="M181.166,5.777l10.073,0l0,3.087l-0.812,0l-0.244,0l-0.69,0l-0.122,0l-0.487,0l-0.528,0l-0.163,0l-0.69,0l-0.122,0l-0.488,0l-0.447,0l-0.203,0l-0.528,0l-0.162,0l-0.691,0l-0.122,0l-0.487,0l0,3.127l6.337,0l0,2.884l-0.569,0l-0.122,0l-0.203,0l-0.122,0l-0.162,0l-0.122,0l-0.813,0l-0.528,0l-0.284,0l-0.569,0l-0.122,0l-0.731,0l-0.528,0l-0.162,0l-0.691,0l-0.122,0l-0.487,0l0,3.25c0.054,0.115 0.149,0.155 0.284,0.122l7.312,0l0,3.087l-0.122,0l-0.163,0l-0.69,0l-0.122,0l-0.487,0l-0.813,0l-0.325,0l-0.325,0l-0.325,0l-0.325,0l-0.812,0l-0.122,0l-0.122,0l-1.259,0l-0.284,0l-0.244,0l-0.284,0l-0.244,0l-0.203,0l-0.244,0l-0.162,0l-0.731,0l-0.447,0l-0.163,0l-0.162,0l-0.163,0l-0.162,0l-0.691,0l-0.122,0l-0.487,0l0,-0.163l0,-0.731l0,-0.325l0,-0.325l0,-0.122l0,-0.162l0,-0.731l0,-0.122l0,-0.813l0,-0.325l0,-0.162l0,-0.731l0,-0.122l0,-0.122l0,-1.259l0,-0.284l0,-0.122l0,-0.163l0,-0.731l0,-0.569l0,-0.121l0,-0.204l0,-0.121l0,-0.163l0,-0.122l0,-0.812l0,-0.691l0,-0.121l0,-0.488l0,-0.528l0,-0.162l0,-0.691l0,-0.122l0,-0.487l0,-0.447l0,-0.203l0,-0.528l0,-0.163l0,-0.69l0,-0.122l0,-0.487l0.122,0Z" style="fill:#323232;fill-rule:nonzero;"/><path d="M195.236,5.777l6.053,0l0.121,0.04l0.325,0l0.082,0.041l0.65,0.081c4.122,1.361 5.91,4.353 5.361,8.977c-0.826,4.793 -4.048,6.932 -9.667,6.418l-0.163,0l-0.203,0l-0.162,0l-0.203,0l-0.163,0l-0.203,0l-0.528,0l-0.162,0l-0.691,0l-0.122,0l-0.487,0l0,-0.163l0,-0.731l0,-0.325l0,-0.325l0,-0.122l0,-0.162l0,-0.731l0,-0.122l0,-0.813l0,-0.325l0,-0.162l0,-0.731l0,-0.122l0,-0.122l0,-1.259l0,-0.284l0,-0.122l0,-0.163l0,-0.731l0,-0.569l0,-0.121l0,-0.204l0,-0.121l0,-0.163l0,-0.122l0,-0.812l0,-0.691l0,-0.121l0,-0.488l0,-0.528l0,-0.162l0,-0.691l0,-0.122l0,-0.487l0,-0.447l0,-0.203l0,-0.528l0,-0.163l0,-0.69l0,-0.122l0,-0.487l0.162,0ZM198.242,18.165l2.884,0l0.284,-0.04c0.251,-0.027 0.468,-0.082 0.65,-0.163l0.244,-0.04c1.787,-0.996 2.586,-2.553 2.397,-4.672c-0.264,-3.141 -1.916,-4.576 -4.956,-4.305l-0.122,0l-0.122,0l-1.259,0l0,9.22Z" style="fill:#323232;fill-rule:nonzero;"/><path d="M223.158,9.31l-0.203,0.082l-0.163,0.081c-0.189,0.115 -0.365,0.196 -0.528,0.244l-0.162,0.081c-0.163,0.101 -0.312,0.169 -0.447,0.203l-0.081,0.081l-0.488,0.203l-0.121,0.041l-0.244,0.162c-0.217,0.082 -0.393,0.163 -0.528,0.244c-0.664,-1.3 -1.639,-2.031 -2.925,-2.193c-1.449,-0.129 -2.586,0.318 -3.412,1.34l-0.081,0.081l-0.284,0.366c-0.732,1.848 -0.853,3.622 -0.366,5.321c0.582,2.187 2.031,3.161 4.346,2.925c1.483,-0.373 2.404,-1.226 2.762,-2.559c0.075,-0.353 0.102,-0.65 0.082,-0.894l-0.528,0l-1.26,0l-0.568,0l-0.122,0l-0.203,0l-0.122,0l-0.163,0l-0.121,0l-0.813,0l0,-0.163l0,-0.69l0,-0.447l0,-0.162l0,-0.691l0,-0.122l0,-0.487l6.824,0l0,8.977l-0.203,0l-0.162,0l-0.691,0l-0.447,0l-0.162,0l-0.691,0l-0.122,0l-0.487,0l0,-0.122l0,-0.163l0,-0.731c-1.151,1.029 -2.424,1.476 -3.818,1.341l-0.081,0.04c-0.881,-0.013 -1.652,-0.176 -2.316,-0.487c-2.559,-1.083 -4.062,-2.993 -4.508,-5.728c-0.488,-2.795 0,-5.206 1.462,-7.23c1.347,-1.773 3.053,-2.721 5.118,-2.843c3.358,-0.135 5.7,1.164 7.027,3.899Z" style="fill:#323232;fill-rule:nonzero;"/><path d="M226.789,5.777l10.074,0l0,3.087l-0.813,0l-0.243,0l-0.691,0l-0.122,0l-0.487,0l-0.528,0l-0.163,0l-0.69,0l-0.122,0l-0.487,0l-0.447,0l-0.203,0l-0.528,0l-0.163,0l-0.69,0l-0.122,0l-0.488,0l0,3.127l6.337,0l0,2.884l-0.569,0l-0.122,0l-0.203,0l-0.122,0l-0.162,0l-0.122,0l-0.812,0l-0.528,0l-0.285,0l-0.568,0l-0.122,0l-0.731,0l-0.528,0l-0.163,0l-0.69,0l-0.122,0l-0.488,0l0,3.25c0.055,0.115 0.149,0.155 0.285,0.122l7.311,0l0,3.087l-0.122,0l-0.162,0l-0.691,0l-0.122,0l-0.487,0l-0.812,0l-0.325,0l-0.325,0l-0.325,0l-0.325,0l-0.813,0l-0.121,0l-0.122,0l-1.26,0l-0.284,0l-0.244,0l-0.284,0l-0.244,0l-0.203,0l-0.243,0l-0.163,0l-0.731,0l-0.447,0l-0.162,0l-0.163,0l-0.162,0l-0.163,0l-0.69,0l-0.122,0l-0.488,0l0,-0.163l0,-0.731l0,-0.325l0,-0.325l0,-0.122l0,-0.162l0,-0.731l0,-0.122l0,-0.813l0,-0.325l0,-0.162l0,-0.731l0,-0.122l0,-0.122l0,-1.259l0,-0.284l0,-0.122l0,-0.163l0,-0.731l0,-0.569l0,-0.121l0,-0.204l0,-0.121l0,-0.163l0,-0.122l0,-0.812l0,-0.691l0,-0.121l0,-0.488l0,-0.528l0,-0.162l0,-0.691l0,-0.122l0,-0.487l0,-0.447l0,-0.203l0,-0.528l0,-0.163l0,-0.69l0,-0.122l0,-0.487l0.122,0Z" style="fill:#323232;fill-rule:nonzero;"/></g></svg>